<svg xmlns="http://www.w3.org/2000/svg" width="100%" height="100%" viewBox="0.48 0.48 23.04 23.04"><path fill="none" d="M0 0h24v24H0z"/><path d="M21.79 17.06l-5.55-5.55 1.57-1.57-3.75-3.75-1.57 1.57-5.55-5.55-4.73 4.73 5.55 5.55L3 17.25V21h3.75l4.76-4.76 5.55 5.55 4.73-4.73zM9.18 11.07L5.04 6.94l1.9-1.9 1.27 1.27L7.02 7.5l1.41 1.41 1.19-1.19 1.45 1.45-1.89 1.9zm3.75 3.75l1.9-1.9 1.45 1.45-1.19 1.19 1.41 1.41 1.19-1.19 1.27 1.27-1.9 1.9-4.13-4.13zM15.133 5.123l2.538-2.539 3.748 3.748-2.538 2.539z"/></svg>